<?xml version="1.0" encoding="utf-8"?>
<!-- Generator: Adobe Illustrator 16.0.0, SVG Export Plug-In . SVG Version: 6.00 Build 0)  -->
<!DOCTYPE svg PUBLIC "-//W3C//DTD SVG 1.1//EN" "http://www.w3.org/Graphics/SVG/1.1/DTD/svg11.dtd">
<svg version="1.1" xmlns="http://www.w3.org/2000/svg" xmlns:xlink="http://www.w3.org/1999/xlink" x="0px" y="0px"
	 width="244.667px" height="201.333px" viewBox="0 0 244.667 201.333" enable-background="new 0 0 244.667 201.333"
	 xml:space="preserve">
<g id="Layer_1">
</g>
<g id="Isolation_Mode" display="none">
</g>
<g id="Make2D::visible::lines">
</g>
<g id="_x3C_Layer_x3E_">
	<path fill="#CD9700" d="M241.028,28.639c-8.524,3.77-17.687,6.331-27.29,7.468c9.815-5.88,17.357-15.149,20.891-26.269
		c-9.166,5.453-19.326,9.412-30.146,11.546c-8.669-9.246-21.02-15.009-34.664-15.009c-26.222,0-47.491,21.268-47.491,47.49
		c0,3.722,0.415,7.351,1.225,10.812C84.088,62.71,49.103,43.813,25.678,15.077c-4.076,7.019-6.424,15.149-6.424,23.852
		c0,16.478,8.38,31.036,21.113,39.547c-7.777-0.261-15.093-2.395-21.492-5.95v0.593c0,22.996,16.371,42.202,38.075,46.564
		c-3.982,1.091-8.192,1.684-12.507,1.684c-3.047,0-6.044-0.309-8.951-0.854c6.061,18.85,23.594,32.577,44.374,32.979
		c-16.254,12.708-36.714,20.319-58.977,20.319c-3.83,0-7.613-0.237-11.321-0.663c21.019,13.467,45.974,21.314,72.798,21.314
		c87.347,0,135.108-72.337,135.108-135.097c0-2.038-0.059-4.1-0.129-6.14C226.602,46.54,234.641,38.17,241.028,28.639z"/>
</g>
</svg>
