<?xml version="1.0" encoding="utf-8"?>
<!-- Generator: Adobe Illustrator 16.0.0, SVG Export Plug-In . SVG Version: 6.00 Build 0)  -->
<!DOCTYPE svg PUBLIC "-//W3C//DTD SVG 1.1//EN" "http://www.w3.org/Graphics/SVG/1.1/DTD/svg11.dtd">
<svg version="1.1" xmlns="http://www.w3.org/2000/svg" xmlns:xlink="http://www.w3.org/1999/xlink" x="0px" y="0px" width="232px"
	 height="232px" viewBox="0 0 232 232" enable-background="new 0 0 232 232" xml:space="preserve">
<g id="Layer_1">
</g>
<g id="Isolation_Mode" display="none">
</g>
<g id="Make2D::visible::lines">
</g>
<g id="_x3C_Layer_x3E_">
	<path fill="#CD9700" d="M31.28,1.439h169.949c16.156,0,29.363,13.205,29.363,29.328v169.972c0,16.145-13.207,29.352-29.363,29.352
		H31.28c-16.145,0-29.363-13.207-29.363-29.352V30.768C1.917,14.645,15.136,1.439,31.28,1.439z M168.485,26.832
		c-5.664,0-10.288,4.646-10.288,10.312v24.61c0,5.666,4.624,10.313,10.288,10.313h25.854c5.669,0,10.292-4.647,10.292-10.313v-24.61
		c0-5.667-4.623-10.312-10.292-10.312H168.485z M204.737,98.124h-20.131c1.922,6.236,2.954,12.804,2.954,19.633
		c0,38.028-31.828,68.851-71.093,68.851c-39.248,0-71.08-30.822-71.08-68.851c0-6.829,1.044-13.396,2.941-19.633H27.345v96.591
		c0,5.004,4.08,9.082,9.068,9.082h159.245c5.003,0,9.079-4.078,9.079-9.082V98.124z M116.468,70.764
		c-25.357,0-45.91,19.916-45.91,44.503c0,24.563,20.553,44.503,45.91,44.503c25.369,0,45.927-19.939,45.927-44.503
		C162.395,90.68,141.837,70.764,116.468,70.764z"/>
</g>
</svg>
